<svg width="327" height="328" viewBox="0 0 327 328" fill="none" xmlns="http://www.w3.org/2000/svg">
<g clip-path="url(#clip0)">
<path d="M219.95 24.5334L167.467 24.5334C165.75 24.5314 164.105 23.8467 162.891 22.6295C161.677 21.4123 160.994 19.762 160.992 18.0406V0.178452L157.722 0.178452V18.0406C157.725 20.6314 158.753 23.1153 160.579 24.9473C162.406 26.7793 164.883 27.8097 167.467 27.8126L219.95 27.8126C221.667 27.8126 223.314 28.4967 224.528 29.7143C225.743 30.9319 226.425 32.5834 226.425 34.3054C226.425 36.0274 225.743 37.6789 224.528 38.8965C223.314 40.1142 221.667 40.7982 219.95 40.7982L89.9678 40.7982C87.3833 40.7982 84.9047 41.8278 83.0773 43.6604C81.2498 45.493 80.2231 47.9785 80.2231 50.5702C80.2231 53.1619 81.2498 55.6475 83.0773 57.4801C84.9047 59.3127 87.3833 60.3423 89.9678 60.3423L151.28 60.3423C152.997 60.3442 154.643 61.0288 155.856 62.2461C157.07 63.4633 157.753 65.1137 157.755 66.8351V83.6161H152.754V86.933H150.614V90.4509H152.754V93.5661H150.614V97.0841H152.754V100.199H150.614V103.717H152.754V106.49L165.749 106.49V103.719H167.89V100.2H165.749V97.0847H167.89V93.5665H165.749V90.4512H167.89V86.933H165.749V83.6161L161.025 83.6161V66.8351C161.022 64.2443 159.994 61.7604 158.167 59.9285C156.341 58.0965 153.864 57.066 151.28 57.0631L89.9678 57.0631C88.2506 57.0631 86.6037 56.379 85.3895 55.1614C84.1753 53.9437 83.4931 52.2922 83.4931 50.5702C83.4931 48.8482 84.1753 47.1968 85.3895 45.9791C86.6037 44.7615 88.2506 44.0774 89.9678 44.0774L219.95 44.0774C221.23 44.0774 222.497 43.8247 223.679 43.3336C224.862 42.8425 225.936 42.1227 226.841 41.2153C227.746 40.3079 228.463 39.2306 228.953 38.045C229.443 36.8594 229.695 35.5887 229.695 34.3054C229.695 33.0221 229.443 31.7514 228.953 30.5658C228.463 29.3802 227.746 28.303 226.841 27.3956C225.936 26.4881 224.862 25.7683 223.679 25.2772C222.497 24.7862 221.23 24.5334 219.95 24.5334V24.5334Z" fill="#05456B" fill-opacity="0.5"/>
<path d="M269.765 169.676C253.596 139.322 206.337 125.718 163.5 125.717C120.665 125.717 73.4045 139.322 57.236 169.676C42.1469 198.004 60.4305 237.74 83.4487 252.062C97.9524 261.086 109.396 257.196 115.738 241.808C121.266 228.395 142.856 220.97 163.5 220.97C184.143 220.97 205.734 228.395 211.262 241.808C217.606 257.196 229.048 261.086 243.552 252.062C266.57 237.74 284.854 198.004 269.765 169.676Z" fill="#05456B" fill-opacity="0.5"/>
<path d="M269.765 147.567C253.596 117.213 206.337 103.609 163.5 103.609C120.663 103.609 73.4038 117.213 57.2353 147.567C42.1462 175.895 60.4297 215.631 83.4479 229.952C97.9517 238.976 109.395 235.087 115.738 219.698C121.266 206.286 142.857 198.861 163.5 198.86C184.144 198.86 205.734 206.285 211.263 219.698C217.607 235.087 229.049 238.976 243.552 229.952C266.571 215.631 284.854 175.895 269.765 147.567Z" fill="#FB35FF"/>
<path d="M269.765 147.567C253.596 117.213 206.337 103.609 163.5 103.609C120.663 103.609 73.4038 117.213 57.2353 147.567C42.1462 175.895 60.4297 215.631 83.4479 229.952C97.9517 238.976 109.395 235.087 115.738 219.698C121.266 206.286 142.857 198.861 163.5 198.86C184.144 198.86 205.734 206.285 211.263 219.698C217.607 235.087 229.049 238.976 243.552 229.952C266.571 215.631 284.854 175.895 269.765 147.567Z" fill="#FB35FF"/>
<path d="M269.765 147.567C253.596 117.213 206.337 103.609 163.5 103.609C120.663 103.609 73.4038 117.213 57.2353 147.567C42.1462 175.895 60.4297 215.631 83.4479 229.952C97.9517 238.976 109.395 235.087 115.738 219.698C121.266 206.286 142.857 198.861 163.5 198.86C184.144 198.86 205.734 206.285 211.263 219.698C217.607 235.087 229.049 238.976 243.552 229.952C266.571 215.631 284.854 175.895 269.765 147.567Z" fill="#FB35FF"/>
<path d="M269.765 147.567C253.596 117.213 206.337 103.609 163.5 103.609C120.663 103.609 73.4038 117.213 57.2353 147.567C42.1462 175.895 60.4297 215.631 83.4479 229.952C97.9517 238.976 109.395 235.087 115.738 219.698C121.266 206.286 142.857 198.861 163.5 198.86C184.144 198.86 205.734 206.285 211.263 219.698C217.607 235.087 229.049 238.976 243.552 229.952C266.571 215.631 284.854 175.895 269.765 147.567Z" fill="#FB35FF"/>
<path fill-rule="evenodd" clip-rule="evenodd" d="M100.244 113.875C119.481 106.662 142.048 103.256 163.5 103.256C184.952 103.256 207.519 106.662 226.756 113.875C245.988 121.086 261.935 132.118 270.075 147.401C277.681 161.681 276.863 178.807 271.279 194.133C265.695 209.458 255.326 223.042 243.738 230.252C236.437 234.794 229.841 236.127 224.24 234.315C218.639 232.504 214.132 227.58 210.938 219.833L211.263 219.698L210.938 219.833C208.226 213.253 201.548 208.093 192.917 204.576C184.296 201.063 173.784 199.213 163.5 199.213C153.216 199.213 142.704 201.063 134.083 204.577C125.453 208.094 118.775 213.253 116.063 219.833C112.869 227.58 108.362 232.504 102.761 234.315C97.1597 236.127 90.5633 234.794 83.2626 230.252C71.6746 223.042 61.3049 209.458 55.7212 194.133C50.1369 178.807 49.3191 161.681 56.9252 147.401C65.0659 132.118 81.0123 121.086 100.244 113.875ZM100.49 114.536C81.3408 121.716 65.5733 132.662 57.5454 147.733C50.0624 161.782 50.8419 178.687 56.3817 193.891C61.922 209.097 72.2031 222.541 83.6333 229.652L83.448 229.952L83.6333 229.652C90.8364 234.134 97.2135 235.368 102.545 233.644C107.877 231.92 112.263 227.204 115.413 219.563C118.229 212.731 125.111 207.472 133.818 203.923C142.536 200.37 153.14 198.508 163.5 198.508C173.86 198.507 184.464 200.37 193.182 203.922C201.89 207.471 208.771 212.731 211.588 219.563C214.738 227.204 219.124 231.92 224.455 233.644C229.787 235.368 236.164 234.134 243.367 229.652C254.797 222.541 265.078 209.097 270.619 193.891C276.158 178.687 276.938 161.782 269.455 147.733C261.427 132.662 245.66 121.716 226.51 114.536C207.366 107.358 184.885 103.962 163.5 103.962C142.115 103.962 119.634 107.358 100.49 114.536Z" fill="white"/>
<path d="M269.765 147.567C253.596 117.213 206.337 103.609 163.5 103.609C120.663 103.609 73.4038 117.213 57.2353 147.567C42.1462 175.895 60.4297 215.631 83.4479 229.952C97.9517 238.976 109.395 235.087 115.738 219.698C121.266 206.286 142.857 198.861 163.5 198.86C184.144 198.86 205.734 206.285 211.263 219.698C217.607 235.087 229.049 238.976 243.552 229.952C266.571 215.631 284.854 175.895 269.765 147.567Z" fill="#FB35FF"/>
<path d="M215.333 127.389L199.207 133.856C196.724 134.852 195.517 137.677 196.509 140.167C197.502 142.656 200.319 143.867 202.802 142.872L218.928 136.405C221.411 135.409 222.619 132.584 221.626 130.094C220.633 127.605 217.816 126.394 215.333 127.389Z" fill="#B235FF"/>
<path d="M99.4772 198.759C118.999 198.759 134.824 182.889 134.824 163.312C134.824 143.736 118.999 127.866 99.4772 127.866C79.9556 127.866 64.1301 143.736 64.1301 163.312C64.1301 182.889 79.9556 198.759 99.4772 198.759Z" fill="#B235FF"/>
<path d="M163.5 110.896C204.097 110.896 248.428 122.373 269.824 147.688C269.803 147.648 269.784 147.608 269.763 147.568C253.596 117.213 206.337 103.609 163.5 103.609C120.663 103.609 73.4032 117.213 57.2347 147.567C57.2138 147.607 57.1945 147.647 57.1736 147.687C78.5702 122.373 122.901 110.896 163.5 110.896Z" fill="#FB35FF"/>
<path d="M270.197 148.414C271.218 158.794 272.811 171.109 254.408 180.449C240.756 187.378 230.537 189.681 222.826 194.494C205.339 205.414 196.025 200.254 182.989 184.062C177.477 184.062 137.062 184.439 129.759 184.062C115.373 210.728 84.361 206.885 71.1486 193.114C57.0222 178.39 55.3502 157.699 56.8024 148.414C42.5138 176.681 60.6584 215.773 83.4477 229.952C97.9515 238.976 109.395 235.087 115.737 219.698C121.266 206.286 142.856 198.861 163.5 198.86C184.143 198.86 205.734 206.285 211.263 219.698C217.606 235.087 229.048 238.976 243.552 229.952C266.341 215.773 284.486 176.681 270.197 148.414Z" fill="#B235FF"/>
<path d="M163.5 107.544C204.289 107.544 248.959 119.477 268.819 145.882C251.824 116.711 205.534 103.609 163.5 103.609C121.467 103.609 75.1772 116.711 58.1804 145.882C78.0395 119.476 122.709 107.544 163.5 107.544Z" fill="#282522"/>
<path fill-rule="evenodd" clip-rule="evenodd" d="M99.6281 112.223C119.099 104.923 141.881 101.493 163.5 101.493C185.119 101.493 207.901 104.923 227.372 112.223C246.809 119.511 263.203 130.758 271.626 146.57C279.539 161.427 278.626 179.107 272.93 194.739C267.238 210.361 256.647 224.295 244.664 231.75C237.12 236.445 229.975 238.023 223.7 235.994C217.425 233.965 212.617 228.521 209.313 220.507L209.313 220.507C206.861 214.557 200.693 209.648 192.255 206.21C183.876 202.795 173.593 200.976 163.5 200.976C153.407 200.976 143.124 202.796 134.745 206.21C126.307 209.649 120.139 214.558 117.687 220.507C114.384 228.521 109.575 233.965 103.3 235.994C97.0249 238.023 89.8803 236.445 82.3356 231.75C70.3529 224.295 59.7619 210.361 54.0696 194.739C48.3741 179.107 47.4605 161.427 55.3743 146.57L56.9532 147.416L55.3743 146.57C63.797 130.758 80.1908 119.511 99.6281 112.223ZM101.105 116.188C82.1617 123.29 66.8416 134.023 59.0958 148.564C51.9205 162.035 52.6041 178.387 58.0326 193.286C63.4644 208.194 73.5242 221.288 84.5597 228.154L84.5598 228.154C91.5188 232.484 97.3478 233.472 102.006 231.966C106.664 230.459 110.748 226.264 113.788 218.89L113.788 218.89C116.864 211.426 124.256 205.917 133.156 202.289C142.115 198.638 152.95 196.744 163.5 196.744C174.05 196.744 184.884 198.638 193.843 202.289C202.744 205.916 210.136 211.426 213.212 218.89C216.252 226.264 220.336 230.459 224.995 231.966C229.652 233.472 235.481 232.484 242.44 228.154L243.552 229.952L242.44 228.154C253.476 221.288 263.535 208.194 268.967 193.286C274.396 178.387 275.079 162.035 267.904 148.564C260.158 134.023 244.838 123.29 225.894 116.188C206.984 109.097 184.718 105.725 163.5 105.725C142.282 105.725 120.015 109.097 101.105 116.188Z" fill="#282522"/>
<path d="M99.0996 201.202C118.371 201.202 133.993 185.536 133.993 166.211C133.993 146.885 118.371 131.219 99.0996 131.219C79.8284 131.219 64.2061 146.885 64.2061 166.211C64.2061 185.536 79.8284 201.202 99.0996 201.202Z" fill="#B235FF"/>
<path d="M97.5359 133.571C103.727 133.573 109.806 135.225 115.15 138.36C120.494 141.495 124.911 145.999 127.946 151.41C130.982 156.821 132.527 162.944 132.425 169.152C132.322 175.359 130.574 181.428 127.361 186.735C130.119 182.917 132.079 178.579 133.124 173.982C134.169 169.384 134.276 164.623 133.44 159.983C132.604 155.344 130.842 150.921 128.259 146.981C125.676 143.042 122.326 139.666 118.41 137.057C114.493 134.448 110.092 132.66 105.469 131.799C100.846 130.939 96.0977 131.024 91.5086 132.05C86.9196 133.076 82.5845 135.021 78.7638 137.769C74.9431 140.517 71.7156 144.01 69.2749 148.04C72.5071 143.557 76.7545 139.908 81.6677 137.393C86.5809 134.877 92.0194 133.568 97.5359 133.571V133.571Z" fill="#FB35FF"/>
<path fill-rule="evenodd" clip-rule="evenodd" d="M125.143 117.466C137.769 114.908 150.619 113.626 163.5 113.638C175.697 113.63 187.868 114.777 199.85 117.066C202.139 117.503 203.641 119.719 203.205 122.015C202.769 124.311 200.56 125.818 198.271 125.381C186.811 123.192 175.169 122.094 163.503 122.103L163.5 117.871L163.496 122.103C151.177 122.091 138.888 123.317 126.813 125.763C124.529 126.226 122.304 124.743 121.842 122.452C121.381 120.161 122.859 117.929 125.143 117.466Z" fill="#B235FF"/>
<path d="M99.0994 194.134C114.478 194.134 126.944 181.632 126.944 166.211C126.944 150.789 114.478 138.287 99.0994 138.287C83.721 138.287 71.2544 150.789 71.2544 166.211C71.2544 181.632 83.721 194.134 99.0994 194.134Z" fill="#FB35FF"/>
<path d="M99.0992 187.751C110.962 187.751 120.58 178.107 120.58 166.211C120.58 154.314 110.962 144.67 99.0992 144.67C87.236 144.67 77.6189 154.314 77.6189 166.211C77.6189 178.107 87.236 187.751 99.0992 187.751Z" fill="#282522"/>
<path fill-rule="evenodd" clip-rule="evenodd" d="M99.0995 146.786C88.4009 146.786 79.7289 155.483 79.7289 166.211C79.7289 176.938 88.4009 185.635 99.0995 185.635C109.798 185.635 118.47 176.938 118.47 166.211C118.47 155.483 109.798 146.786 99.0995 146.786ZM75.5095 166.211C75.5095 153.145 86.0716 142.554 99.0995 142.554C112.127 142.554 122.689 153.145 122.689 166.211C122.689 179.276 112.127 189.867 99.0995 189.867C86.0716 189.867 75.5095 179.276 75.5095 166.211Z" fill="#282522"/>
<path d="M103.675 149.285C103.677 148.464 103.37 147.672 102.816 147.067C102.262 146.462 101.501 146.089 100.684 146.021C100.161 145.979 99.6329 145.957 99.0997 145.957C98.5665 145.957 98.0383 145.978 97.5154 146.02C96.699 146.088 95.9382 146.462 95.3841 147.067C94.8299 147.672 94.5231 148.464 94.5246 149.285V154.796C94.5246 156.607 93.8074 158.343 92.5309 159.623C91.2543 160.904 89.5228 161.623 87.7175 161.623H82.2219C81.4028 161.621 80.6131 161.929 80.0098 162.485C79.4065 163.04 79.0339 163.803 78.966 164.622C78.9245 165.147 78.9035 165.676 78.9028 166.211C78.9022 166.745 78.9232 167.275 78.966 167.8C79.0339 168.618 79.4065 169.381 80.0098 169.937C80.6131 170.493 81.4028 170.8 82.2219 170.799H87.7175C89.5228 170.799 91.2543 171.518 92.5309 172.798C93.8074 174.078 94.5246 175.815 94.5246 177.625V183.136C94.5231 183.958 94.8299 184.75 95.3841 185.355C95.9382 185.96 96.699 186.333 97.5154 186.401C98.0386 186.443 98.5667 186.464 99.0997 186.465C99.6327 186.465 100.161 186.444 100.684 186.401C101.501 186.333 102.262 185.96 102.816 185.355C103.37 184.75 103.677 183.958 103.675 183.136V177.625C103.675 175.815 104.392 174.078 105.669 172.798C106.945 171.518 108.677 170.799 110.482 170.799H115.978C116.797 170.801 117.587 170.493 118.19 169.937C118.793 169.381 119.166 168.618 119.233 167.8C119.275 167.275 119.296 166.745 119.297 166.211C119.297 165.676 119.276 165.146 119.233 164.622C119.166 163.803 118.793 163.04 118.19 162.485C117.587 161.929 116.797 161.621 115.978 161.623H110.482C108.677 161.623 106.945 160.904 105.669 159.623C104.392 158.343 103.675 156.607 103.675 154.796V149.285Z" fill="#0D1622"/>
<path fill-rule="evenodd" clip-rule="evenodd" d="M99.0994 133.335C80.9929 133.335 66.3155 148.054 66.3155 166.211C66.3155 184.367 80.9929 199.086 99.0994 199.086C117.206 199.086 131.883 184.367 131.883 166.211C131.883 148.054 117.206 133.335 99.0994 133.335ZM62.0962 166.211C62.0962 145.716 78.6636 129.103 99.0994 129.103C119.535 129.103 136.103 145.716 136.103 166.211C136.103 186.705 119.535 203.318 99.0994 203.318C78.6636 203.318 62.0962 186.705 62.0962 166.211Z" fill="#282522"/>
<path d="M99.0996 173.04C102.861 173.04 105.91 169.982 105.91 166.211C105.91 162.439 102.861 159.381 99.0996 159.381C95.3385 159.381 92.2896 162.439 92.2896 166.211C92.2896 169.982 95.3385 173.04 99.0996 173.04Z" fill="#FB35FF"/>
<path fill-rule="evenodd" clip-rule="evenodd" d="M99.0997 163.576C98.6439 163.576 98.1959 163.695 97.7998 163.921C97.4037 164.147 97.0731 164.472 96.8404 164.865C96.6078 165.258 96.4811 165.705 96.4728 166.162C96.4645 166.618 96.5748 167.069 96.793 167.471C97.165 168.155 96.9139 169.012 96.232 169.385C95.5501 169.758 94.6958 169.506 94.3237 168.822C93.8717 167.991 93.6431 167.056 93.6603 166.11C93.6776 165.164 93.9401 164.238 94.422 163.424C94.9039 162.61 95.5887 161.936 96.409 161.468C97.2293 161 98.1569 160.754 99.1006 160.755C99.8774 160.755 100.507 161.387 100.507 162.166C100.506 162.945 99.8764 163.576 99.0997 163.576Z" fill="#282522"/>
<path d="M104.585 162.176C105.23 163.718 105.287 165.443 104.748 167.025C104.208 168.606 103.108 169.934 101.657 170.757C100.205 171.579 98.5035 171.839 96.874 171.486C95.2445 171.134 93.8006 170.194 92.8162 168.845C93.1862 169.736 93.7405 170.539 94.4425 171.199C95.1445 171.86 95.9782 172.364 96.8887 172.678C97.7992 172.991 98.7656 173.108 99.7243 173.02C100.683 172.931 101.612 172.64 102.45 172.165C103.288 171.69 104.016 171.042 104.587 170.264C105.157 169.486 105.556 168.596 105.758 167.652C105.959 166.708 105.959 165.732 105.757 164.788C105.555 163.844 105.156 162.954 104.585 162.176V162.176Z" fill="#B235FF"/>
<path d="M121.005 144.946C121.391 144.946 121.704 144.632 121.704 144.245C121.704 143.858 121.391 143.544 121.005 143.544C120.619 143.544 120.307 143.858 120.307 144.245C120.307 144.632 120.619 144.946 121.005 144.946Z" fill="#FB35FF"/>
<path d="M77.1937 188.881C77.5796 188.881 77.8925 188.567 77.8925 188.18C77.8925 187.793 77.5796 187.479 77.1937 187.479C76.8077 187.479 76.4949 187.793 76.4949 188.18C76.4949 188.567 76.8077 188.881 77.1937 188.881Z" fill="#FB35FF"/>
<path d="M121.005 188.881C121.391 188.881 121.704 188.567 121.704 188.18C121.704 187.793 121.391 187.479 121.005 187.479C120.619 187.479 120.307 187.793 120.307 188.18C120.307 188.567 120.619 188.881 121.005 188.881Z" fill="#FB35FF"/>
<path d="M77.1937 144.946C77.5796 144.946 77.8925 144.632 77.8925 144.245C77.8925 143.858 77.5796 143.544 77.1937 143.544C76.8077 143.544 76.4949 143.858 76.4949 144.245C76.4949 144.632 76.8077 144.946 77.1937 144.946Z" fill="#FB35FF"/>
<path d="M264.663 168.709C271.21 159.749 267.972 144.55 256.39 140.299C243.953 135.734 226.26 140.832 215.919 145.897C205.88 150.814 186.806 160.518 183.291 174.515C180.288 186.472 189.698 197.634 200.734 198.58C211.165 199.473 216.153 192.064 235.721 183.889C244.673 180.15 258.475 177.179 264.663 168.709Z" fill="#B235FF"/>
<path d="M215.397 148.792C225.738 143.727 243.431 138.629 255.868 143.194C264.18 146.246 268.193 154.937 267.376 162.914C269.635 154.263 265.725 143.727 256.392 140.301C243.955 135.735 226.262 140.833 215.921 145.898C205.883 150.815 186.808 160.519 183.293 174.517C183.075 175.391 182.921 176.279 182.831 177.176C186.5 163.304 205.415 153.68 215.397 148.792Z" fill="#FB35FF"/>
<path d="M202.026 191.049C207.85 191.049 212.571 186.314 212.571 180.474C212.571 174.634 207.85 169.899 202.026 169.899C196.202 169.899 191.481 174.634 191.481 180.474C191.481 186.314 196.202 191.049 202.026 191.049Z" fill="#282522"/>
<path fill-rule="evenodd" clip-rule="evenodd" d="M202.026 172.015C197.367 172.015 193.591 175.803 193.591 180.474C193.591 185.145 197.367 188.932 202.026 188.932C206.685 188.932 210.462 185.145 210.462 180.474C210.462 175.803 206.685 172.015 202.026 172.015ZM189.371 180.474C189.371 173.464 195.038 167.783 202.026 167.783C209.015 167.783 214.681 173.464 214.681 180.474C214.681 187.483 209.015 193.165 202.026 193.165C195.038 193.165 189.371 187.483 189.371 180.474Z" fill="#282522"/>
<path d="M195.234 183.088C194.545 181.282 194.599 179.275 195.384 177.508C196.168 175.741 197.62 174.358 199.42 173.663" fill="#282522"/>
<path fill-rule="evenodd" clip-rule="evenodd" d="M200.732 173.156C201.011 173.883 200.65 174.7 199.925 174.979C198.473 175.54 197.301 176.656 196.668 178.082C196.035 179.507 195.992 181.127 196.548 182.584C196.825 183.312 196.462 184.127 195.737 184.406C195.011 184.684 194.198 184.32 193.921 183.592C193.098 181.437 193.162 179.042 194.099 176.934C195.035 174.825 196.767 173.176 198.915 172.346C199.64 172.066 200.453 172.429 200.732 173.156Z" fill="#282522"/>
<path d="M225.426 180.4C231.25 180.4 235.971 175.666 235.971 169.826C235.971 163.985 231.25 159.251 225.426 159.251C219.602 159.251 214.881 163.985 214.881 169.826C214.881 175.666 219.602 180.4 225.426 180.4Z" fill="#282522"/>
<path fill-rule="evenodd" clip-rule="evenodd" d="M225.426 159.603C219.796 159.603 215.232 164.18 215.232 169.826C215.232 175.471 219.796 180.048 225.426 180.048C231.055 180.048 235.619 175.471 235.619 169.826C235.619 164.18 231.055 159.603 225.426 159.603ZM214.529 169.826C214.529 163.79 219.408 158.898 225.426 158.898C231.444 158.898 236.322 163.79 236.322 169.826C236.322 175.861 231.444 180.753 225.426 180.753C219.408 180.753 214.529 175.861 214.529 169.826Z" fill="#282522"/>
<path d="M225.426 180.4C231.25 180.4 235.971 175.666 235.971 169.826C235.971 163.985 231.25 159.251 225.426 159.251C219.602 159.251 214.881 163.985 214.881 169.826C214.881 175.666 219.602 180.4 225.426 180.4Z" fill="#282522"/>
<path fill-rule="evenodd" clip-rule="evenodd" d="M225.426 161.367C220.766 161.367 216.99 165.154 216.99 169.826C216.99 174.497 220.766 178.284 225.426 178.284C230.085 178.284 233.861 174.497 233.861 169.826C233.861 165.154 230.085 161.367 225.426 161.367ZM212.771 169.826C212.771 162.816 218.437 157.135 225.426 157.135C232.414 157.135 238.08 162.816 238.08 169.826C238.08 176.835 232.414 182.516 225.426 182.516C218.437 182.516 212.771 176.835 212.771 169.826Z" fill="#282522"/>
<path d="M218.634 172.44C217.944 170.634 217.998 168.627 218.783 166.86C219.567 165.093 221.019 163.71 222.819 163.015" fill="#282522"/>
<path fill-rule="evenodd" clip-rule="evenodd" d="M224.132 162.508C224.411 163.235 224.05 164.051 223.325 164.331C221.872 164.892 220.701 166.008 220.068 167.434C219.435 168.859 219.392 170.479 219.948 171.936C220.225 172.664 219.862 173.48 219.137 173.758C218.411 174.036 217.598 173.672 217.32 172.945C216.498 170.789 216.562 168.394 217.498 166.286C218.435 164.177 220.167 162.527 222.314 161.698C223.039 161.418 223.853 161.781 224.132 162.508Z" fill="#282522"/>
<path d="M248.629 169.752C254.452 169.752 259.174 165.018 259.174 159.177C259.174 153.337 254.452 148.603 248.629 148.603C242.805 148.603 238.083 153.337 238.083 159.177C238.083 165.018 242.805 169.752 248.629 169.752Z" fill="#282522"/>
<path fill-rule="evenodd" clip-rule="evenodd" d="M248.629 148.955C242.999 148.955 238.435 153.532 238.435 159.177C238.435 164.823 242.999 169.399 248.629 169.399C254.258 169.399 258.822 164.823 258.822 159.177C258.822 153.532 254.258 148.955 248.629 148.955ZM237.732 159.177C237.732 153.142 242.611 148.25 248.629 148.25C254.647 148.25 259.525 153.142 259.525 159.177C259.525 165.213 254.647 170.105 248.629 170.105C242.611 170.105 237.732 165.213 237.732 159.177Z" fill="#282522"/>
<path d="M248.629 169.752C254.452 169.752 259.174 165.018 259.174 159.177C259.174 153.337 254.452 148.603 248.629 148.603C242.805 148.603 238.083 153.337 238.083 159.177C238.083 165.018 242.805 169.752 248.629 169.752Z" fill="#282522"/>
<path fill-rule="evenodd" clip-rule="evenodd" d="M248.628 150.719C243.969 150.719 240.193 154.506 240.193 159.177C240.193 163.848 243.969 167.636 248.628 167.636C253.288 167.636 257.064 163.848 257.064 159.177C257.064 154.506 253.288 150.719 248.628 150.719ZM235.974 159.177C235.974 152.168 241.64 146.486 248.628 146.486C255.617 146.486 261.283 152.168 261.283 159.177C261.283 166.187 255.617 171.868 248.628 171.868C241.64 171.868 235.974 166.187 235.974 159.177Z" fill="#282522"/>
<path d="M241.837 161.792C241.148 159.986 241.201 157.978 241.986 156.211C242.771 154.444 244.222 153.062 246.022 152.366" fill="#282522"/>
<path fill-rule="evenodd" clip-rule="evenodd" d="M247.335 151.86C247.614 152.587 247.253 153.403 246.528 153.683C245.075 154.244 243.904 155.36 243.271 156.785C242.638 158.211 242.594 159.83 243.15 161.288C243.428 162.016 243.065 162.831 242.339 163.11C241.614 163.388 240.801 163.024 240.523 162.296C239.701 160.141 239.765 157.746 240.701 155.637C241.638 153.529 243.37 151.879 245.517 151.05C246.242 150.77 247.056 151.132 247.335 151.86Z" fill="#282522"/>
<path fill-rule="evenodd" clip-rule="evenodd" d="M234.989 137.405C242.435 136.036 250.395 135.845 257.116 138.312C263.656 140.713 267.779 146.191 269.365 152.197C270.943 158.175 270.067 164.893 266.365 169.96L264.664 168.709L266.365 169.96C262.922 174.673 257.481 177.716 252.051 180.022C249.313 181.185 246.498 182.191 243.851 183.127C243.67 183.191 243.49 183.254 243.311 183.317C240.845 184.188 238.556 184.997 236.532 185.842C228.859 189.048 223.506 192.111 219.075 194.646C217.937 195.297 216.86 195.914 215.82 196.489C210.728 199.304 206.413 201.19 200.555 200.688C188.369 199.644 177.89 187.36 181.245 173.999C183.185 166.273 189.326 159.976 195.905 155.099C202.538 150.183 209.972 146.455 214.994 143.995C220.318 141.388 227.509 138.781 234.989 137.405ZM235.75 141.568C228.689 142.867 221.863 145.341 216.845 147.798L216.845 147.798C211.829 150.255 204.706 153.838 198.413 158.503C192.066 163.207 186.912 168.76 185.337 175.032L183.291 174.516L185.337 175.032C182.687 185.585 191.027 195.624 200.914 196.471C205.487 196.863 208.881 195.492 213.783 192.782C214.764 192.24 215.801 191.646 216.912 191.01C221.353 188.468 226.971 185.252 234.91 181.935L234.91 181.935C237.049 181.042 239.446 180.195 241.879 179.336C242.069 179.269 242.259 179.202 242.449 179.135C245.101 178.197 247.802 177.23 250.407 176.124C255.663 173.892 260.217 171.215 262.962 167.458L264.52 168.603L262.962 167.458C265.807 163.565 266.586 158.204 265.286 153.28C263.993 148.384 260.707 144.137 255.666 142.287L255.666 142.287C249.949 140.188 242.844 140.263 235.75 141.568Z" fill="#282522"/>
<path d="M202.242 188.894C208.066 188.894 212.787 184.159 212.787 178.319C212.787 172.479 208.066 167.744 202.242 167.744C196.418 167.744 191.697 172.479 191.697 178.319C191.697 184.159 196.418 188.894 202.242 188.894Z" fill="#FB35FF"/>
<path d="M212.086 174.529C211.445 172.848 210.384 171.36 209.006 170.207C210.347 172.339 210.884 174.881 210.522 177.375C210.16 179.868 208.921 182.151 207.029 183.81C205.138 185.469 202.717 186.396 200.204 186.424C197.691 186.452 195.251 185.579 193.323 183.962C194.72 186.183 196.89 187.803 199.412 188.507C201.934 189.211 204.627 188.95 206.967 187.773C209.308 186.597 211.128 184.589 212.074 182.141C213.02 179.693 213.024 176.98 212.086 174.529V174.529Z" fill="#B235FF"/>
<path fill-rule="evenodd" clip-rule="evenodd" d="M202.242 169.86C197.582 169.86 193.806 173.648 193.806 178.319C193.806 182.99 197.582 186.778 202.242 186.778C206.901 186.778 210.677 182.99 210.677 178.319C210.677 173.648 206.901 169.86 202.242 169.86ZM189.587 178.319C189.587 171.309 195.253 165.628 202.242 165.628C209.23 165.628 214.896 171.309 214.896 178.319C214.896 185.328 209.23 191.01 202.242 191.01C195.253 191.01 189.587 185.328 189.587 178.319Z" fill="#282522"/>
<path fill-rule="evenodd" clip-rule="evenodd" d="M200.948 171.001C201.227 171.728 200.865 172.545 200.141 172.825C198.688 173.386 197.517 174.501 196.884 175.927C196.251 177.353 196.207 178.972 196.763 180.43C197.041 181.157 196.678 181.973 195.952 182.251C195.227 182.53 194.414 182.166 194.136 181.438C193.314 179.282 193.378 176.887 194.314 174.779C195.25 172.671 196.982 171.021 199.13 170.192C199.855 169.912 200.669 170.274 200.948 171.001Z" fill="#282522"/>
<path d="M224.842 178.036C230.666 178.036 235.388 173.301 235.388 167.461C235.388 161.621 230.666 156.886 224.842 156.886C219.019 156.886 214.297 161.621 214.297 167.461C214.297 173.301 219.019 178.036 224.842 178.036Z" fill="#FB35FF"/>
<path d="M234.688 163.671C234.047 161.99 232.986 160.502 231.608 159.349C232.949 161.481 233.487 164.023 233.125 166.517C232.762 169.011 231.524 171.293 229.632 172.952C227.74 174.612 225.319 175.539 222.806 175.566C220.293 175.594 217.853 174.721 215.925 173.104C217.322 175.324 219.492 176.944 222.014 177.648C224.536 178.352 227.228 178.09 229.569 176.914C231.909 175.737 233.729 173.73 234.675 171.282C235.621 168.835 235.626 166.122 234.688 163.671V163.671Z" fill="#B235FF"/>
<path fill-rule="evenodd" clip-rule="evenodd" d="M224.842 159.002C220.183 159.002 216.407 162.79 216.407 167.461C216.407 172.132 220.183 175.92 224.842 175.92C229.502 175.92 233.278 172.132 233.278 167.461C233.278 162.79 229.502 159.002 224.842 159.002ZM212.188 167.461C212.188 160.451 217.854 154.77 224.842 154.77C231.831 154.77 237.497 160.451 237.497 167.461C237.497 174.47 231.831 180.152 224.842 180.152C217.854 180.152 212.188 174.47 212.188 167.461Z" fill="#282522"/>
<path fill-rule="evenodd" clip-rule="evenodd" d="M223.549 160.143C223.828 160.87 223.467 161.687 222.742 161.967C221.289 162.527 220.118 163.643 219.485 165.069C218.852 166.494 218.809 168.114 219.365 169.571C219.642 170.299 219.279 171.115 218.554 171.393C217.828 171.671 217.015 171.307 216.737 170.58C215.915 168.424 215.979 166.029 216.915 163.921C217.852 161.812 219.584 160.162 221.731 159.333C222.456 159.053 223.27 159.416 223.549 160.143Z" fill="#282522"/>
<path d="M216.465 128.003L201.364 134.05C199.854 134.655 199.119 136.373 199.722 137.887C200.325 139.401 202.038 140.139 203.548 139.534L218.649 133.486C220.159 132.882 220.894 131.164 220.291 129.65C219.688 128.135 217.975 127.398 216.465 128.003Z" fill="#FB35FF"/>
<path fill-rule="evenodd" clip-rule="evenodd" d="M202.147 136.016C201.719 136.187 201.511 136.674 201.682 137.102C201.852 137.53 202.337 137.739 202.765 137.568L217.866 131.52C218.294 131.349 218.502 130.863 218.331 130.434C218.161 130.006 217.676 129.797 217.248 129.968L202.147 136.016ZM197.762 138.672C196.726 136.072 197.989 133.123 200.581 132.084L215.682 126.037C218.274 124.999 221.215 126.264 222.251 128.865C223.286 131.465 222.024 134.414 219.432 135.452L204.331 141.5C201.739 142.538 198.797 141.272 197.762 138.672Z" fill="#282522"/>
<path d="M200.23 129.434C199.724 129.637 199.241 129.561 199.091 129.183L199.535 129.005C199.623 129.173 199.825 129.255 200.112 129.14C200.4 129.025 200.515 128.826 200.443 128.645C200.238 128.13 199.027 129.003 198.714 128.218C198.565 127.844 198.825 127.47 199.342 127.262C199.827 127.068 200.255 127.145 200.437 127.496L199.979 127.68C199.907 127.542 199.705 127.469 199.44 127.568C199.198 127.659 199.051 127.831 199.133 128.037C199.325 128.518 200.545 127.68 200.856 128.459C200.982 128.778 200.795 129.208 200.23 129.434Z" fill="#FB35FF"/>
<path d="M200.972 126.64L202.738 125.932L202.851 126.217L202.178 126.487L202.914 128.333L202.499 128.5L201.763 126.654L201.086 126.925L200.972 126.64Z" fill="#FB35FF"/>
<path d="M205.724 126.701L204.664 127.128L204.656 127.636L204.223 127.81L204.279 125.312L204.759 125.12L206.517 126.89L206.08 127.066L205.724 126.701ZM204.687 125.637L204.667 126.794L205.494 126.463L204.687 125.637Z" fill="#FB35FF"/>
<path d="M207.3 124.103C207.901 123.862 208.312 124.035 208.45 124.381C208.506 124.54 208.502 124.713 208.439 124.869C208.376 125.025 208.258 125.152 208.107 125.226L209.085 125.858L208.59 126.057L207.668 125.438L207.351 125.565L207.691 126.418L207.276 126.584L206.426 124.453L207.3 124.103ZM207.414 124.388L206.956 124.572L207.241 125.286L207.699 125.102C208.023 124.971 208.108 124.764 208.026 124.552C207.943 124.34 207.738 124.258 207.414 124.388Z" fill="#FB35FF"/>
<path d="M208.962 123.436L210.728 122.728L210.841 123.013L210.168 123.283L210.904 125.129L210.489 125.296L209.753 123.45L209.075 123.721L208.962 123.436Z" fill="#FB35FF"/>
<path d="M163.5 103.609C147.673 103.609 131.244 105.469 116.001 109.342C118.65 110.268 121.528 111.107 124.592 111.85C137.385 109.141 150.425 107.782 163.5 107.794V107.794C174.65 107.79 185.778 108.775 196.755 110.735C199.516 109.946 202.231 109.003 204.886 107.909C191.278 105.032 177.407 103.591 163.5 103.609V103.609Z" fill="#FB35FF"/>
<path d="M163.5 105.665C176.212 105.656 188.896 106.857 201.381 109.252C202.597 108.822 203.768 108.374 204.886 107.908C191.278 105.031 177.407 103.59 163.5 103.609V103.609C147.673 103.609 131.245 105.469 116.002 109.342C117.175 109.752 118.394 110.144 119.653 110.519C134.043 107.269 148.75 105.641 163.5 105.665V105.665Z" fill="#FB35FF"/>
<path fill-rule="evenodd" clip-rule="evenodd" d="M163.498 101.493C177.552 101.474 191.57 102.931 205.321 105.839L212.026 107.256L205.687 109.867C202.959 110.99 200.17 111.96 197.334 112.77L196.865 112.904L196.386 112.819C185.531 110.88 174.526 109.907 163.5 109.91L163.5 107.792L163.498 109.91C150.57 109.898 137.676 111.242 125.028 113.921L124.56 114.02L124.096 113.907C120.973 113.15 118.029 112.291 115.307 111.34L108.673 109.021L115.483 107.29C130.912 103.37 147.515 101.493 163.498 101.493ZM163.5 105.678V103.609ZM163.5 103.609L163.502 105.678C163.502 105.678 163.501 105.678 163.5 105.678M143.834 106.685C137.263 107.329 130.719 108.299 124.328 109.606C124.427 109.631 124.527 109.656 124.627 109.681C130.978 108.353 137.389 107.353 143.834 106.685ZM196.799 108.52C192.039 107.708 187.253 107.073 182.449 106.615C187.2 107.087 191.934 107.738 196.641 108.566C196.694 108.551 196.746 108.535 196.799 108.52Z" fill="#282522"/>
<path d="M248.866 166.65C254.69 166.65 259.411 161.915 259.411 156.075C259.411 150.235 254.69 145.5 248.866 145.5C243.042 145.5 238.321 150.235 238.321 156.075C238.321 161.915 243.042 166.65 248.866 166.65Z" fill="#FB35FF"/>
<path d="M258.711 152.285C258.069 150.604 257.009 149.116 255.631 147.963C256.972 150.095 257.51 152.637 257.148 155.131C256.786 157.625 255.547 159.907 253.655 161.567C251.763 163.226 249.343 164.153 246.829 164.181C244.316 164.209 241.876 163.335 239.948 161.718C241.345 163.939 243.515 165.559 246.037 166.263C248.559 166.967 251.252 166.706 253.592 165.529C255.933 164.353 257.753 162.345 258.699 159.897C259.645 157.45 259.649 154.736 258.711 152.285Z" fill="#B235FF"/>
<path fill-rule="evenodd" clip-rule="evenodd" d="M248.866 147.617C244.207 147.617 240.431 151.404 240.431 156.075C240.431 160.746 244.207 164.534 248.866 164.534C253.526 164.534 257.302 160.746 257.302 156.075C257.302 151.404 253.526 147.617 248.866 147.617ZM236.211 156.075C236.211 149.066 241.878 143.384 248.866 143.384C255.855 143.384 261.521 149.066 261.521 156.075C261.521 163.085 255.855 168.766 248.866 168.766C241.878 168.766 236.211 163.085 236.211 156.075Z" fill="#282522"/>
<path fill-rule="evenodd" clip-rule="evenodd" d="M247.573 148.758C247.852 149.485 247.49 150.301 246.766 150.581C245.313 151.142 244.142 152.258 243.509 153.684C242.876 155.109 242.832 156.728 243.388 158.186C243.666 158.914 243.303 159.729 242.577 160.008C241.852 160.286 241.039 159.922 240.761 159.194C239.939 157.039 240.003 154.644 240.939 152.535C241.875 150.427 243.607 148.777 245.755 147.948C246.48 147.668 247.294 148.031 247.573 148.758Z" fill="#282522"/>
<path d="M159.889 102.709H156.619V63.5558C156.617 61.8344 155.934 60.184 154.721 58.9668C153.507 57.7496 151.861 57.0649 150.144 57.063L88.832 57.063C86.2476 57.063 83.769 56.0334 81.9415 54.2008C80.1141 52.3682 79.0874 49.8827 79.0874 47.291C79.0874 44.6993 80.1141 42.2137 81.9415 40.3811C83.769 38.5485 86.2476 37.519 88.832 37.519L218.815 37.519C220.532 37.519 222.179 36.8349 223.393 35.6173C224.607 34.3996 225.289 32.7481 225.289 31.0261C225.289 29.3041 224.607 27.6527 223.393 26.435C222.179 25.2174 220.532 24.5333 218.815 24.5333L166.331 24.5333C163.747 24.5304 161.271 23.4999 159.444 21.6679C157.617 19.8359 156.589 17.3521 156.586 14.7613V0L159.856 0V14.7613C159.858 16.4827 160.541 18.133 161.755 19.3502C162.969 20.5674 164.614 21.2521 166.331 21.2541L218.815 21.2541C221.399 21.2541 223.878 22.2837 225.705 24.1163C227.532 25.9489 228.559 28.4344 228.559 31.0261C228.559 33.6178 227.532 36.1034 225.705 37.936C223.878 39.7686 221.399 40.7982 218.815 40.7982L88.832 40.7982C87.1148 40.7982 85.468 41.4822 84.2538 42.6999C83.0395 43.9175 82.3574 45.569 82.3574 47.291C82.3574 49.013 83.0395 50.6644 84.2538 51.8821C85.468 53.0997 87.1148 53.7838 88.832 53.7838L150.144 53.7838C152.728 53.7867 155.205 54.8171 157.032 56.6491C158.859 58.4811 159.886 60.965 159.889 63.5558V102.709Z" fill="#282522"/>
<path d="M164.614 80.3369H151.619V83.8549H164.614V80.3369Z" fill="#282522"/>
<path d="M166.754 83.6538H149.479V87.1718H166.754V83.6538Z" fill="#302E2C"/>
<path d="M164.614 86.9703H151.619V90.4883H164.614V86.9703Z" fill="#282522"/>
<path d="M166.754 90.2873H149.479V93.8052H166.754V90.2873Z" fill="#302E2C"/>
<path d="M164.614 93.6038H151.619V97.1217H164.614V93.6038Z" fill="#282522"/>
<path d="M164.614 99.692H151.619V103.21H164.614V99.692Z" fill="#282522"/>
<path d="M166.754 96.9207H149.479V100.439H166.754V96.9207Z" fill="#302E2C"/>
<path d="M100.969 136.769L99.3625 133.813C99.338 133.764 99.3004 133.723 99.254 133.694C99.2076 133.665 99.1541 133.65 99.0996 133.65C99.0451 133.65 98.9916 133.665 98.9452 133.694C98.8987 133.723 98.8612 133.764 98.8367 133.813L97.2295 136.769C97.2022 136.817 97.1875 136.871 97.1868 136.927C97.1861 136.983 97.1994 137.038 97.2255 137.087C97.2516 137.136 97.2896 137.177 97.336 137.208C97.3825 137.238 97.4358 137.256 97.4911 137.26H100.734C100.787 137.253 100.838 137.232 100.881 137.2C100.925 137.168 100.96 137.126 100.983 137.078C101.006 137.029 101.017 136.975 101.015 136.921C101.012 136.867 100.997 136.815 100.969 136.769Z" fill="#FB35FF"/>
<path d="M97.2302 195.652L98.8371 198.608C98.8616 198.657 98.8992 198.698 98.9456 198.726C98.992 198.755 99.0455 198.77 99.1 198.77C99.1545 198.77 99.208 198.755 99.2544 198.726C99.3008 198.698 99.3384 198.657 99.3629 198.608L100.97 195.652C100.997 195.603 101.012 195.548 101.013 195.493C101.013 195.437 101 195.382 100.974 195.333C100.947 195.284 100.909 195.242 100.862 195.212C100.816 195.182 100.762 195.164 100.707 195.16H97.4637C97.4108 195.168 97.3607 195.189 97.3178 195.221C97.2749 195.253 97.2405 195.295 97.2175 195.344C97.1945 195.392 97.1836 195.446 97.1858 195.499C97.188 195.553 97.2033 195.605 97.2302 195.652V195.652Z" fill="#FB35FF"/>
<path d="M128.461 168.086L131.408 166.474C131.457 166.45 131.498 166.412 131.527 166.365C131.555 166.319 131.57 166.265 131.57 166.211C131.57 166.156 131.555 166.102 131.527 166.056C131.498 166.009 131.457 165.971 131.408 165.947L128.461 164.336C128.412 164.308 128.358 164.293 128.303 164.293C128.247 164.292 128.192 164.305 128.143 164.331C128.095 164.357 128.053 164.396 128.023 164.442C127.992 164.489 127.974 164.542 127.97 164.598V167.85C127.978 167.904 127.999 167.954 128.03 167.998C128.062 168.041 128.104 168.076 128.153 168.099C128.201 168.123 128.255 168.134 128.308 168.131C128.362 168.129 128.414 168.113 128.461 168.086Z" fill="#FB35FF"/>
<path d="M69.7418 164.335L66.7939 165.947C66.7452 165.971 66.7042 166.009 66.6756 166.055C66.647 166.102 66.6318 166.156 66.6318 166.21C66.6318 166.265 66.647 166.319 66.6756 166.365C66.7042 166.412 66.7452 166.449 66.7939 166.474L69.7418 168.086C69.7902 168.113 69.8447 168.128 69.9002 168.128C69.9558 168.129 70.0106 168.115 70.0596 168.089C70.1085 168.063 70.15 168.024 70.1802 167.978C70.2104 167.931 70.2284 167.877 70.2323 167.822V164.57C70.2245 164.516 70.2038 164.466 70.1719 164.422C70.14 164.379 70.0979 164.344 70.0495 164.321C70.001 164.298 69.9475 164.287 69.8939 164.29C69.8402 164.292 69.788 164.308 69.7418 164.335Z" fill="#FB35FF"/>
<path fill-rule="evenodd" clip-rule="evenodd" d="M231.777 147.236C232.114 148.355 231.483 149.536 230.368 149.874C223.175 152.055 217.924 154.415 214.494 156.213C212.778 157.112 211.518 157.87 210.697 158.396C210.286 158.659 209.986 158.863 209.793 158.998C209.697 159.065 209.628 159.115 209.585 159.146C209.564 159.162 209.549 159.172 209.542 159.178L209.537 159.182C209.536 159.182 209.536 159.183 209.535 159.183C208.607 159.887 207.285 159.703 206.582 158.773C205.878 157.842 206.06 156.515 206.989 155.808L208.226 157.445C206.989 155.808 206.989 155.808 206.99 155.808L206.991 155.807L206.994 155.804L207.002 155.798L207.025 155.781C207.044 155.767 207.07 155.748 207.102 155.724C207.167 155.677 207.259 155.611 207.379 155.527C207.618 155.36 207.967 155.123 208.427 154.828C209.347 154.239 210.713 153.419 212.54 152.461C216.194 150.546 221.69 148.083 229.147 145.823C230.263 145.485 231.44 146.117 231.777 147.236Z" fill="#FB35FF"/>
<path d="M147.862 161.291H151.671C151.946 161.295 152.218 161.243 152.473 161.14C152.727 161.037 152.959 160.885 153.154 160.691C153.35 160.498 153.505 160.267 153.611 160.013C153.716 159.759 153.771 159.487 153.771 159.212C153.771 158.936 153.716 158.664 153.611 158.41C153.505 158.156 153.35 157.925 153.154 157.732C152.959 157.538 152.727 157.386 152.473 157.283C152.218 157.18 151.946 157.129 151.671 157.132L150.597 157.118C150.448 157.12 150.301 157.094 150.163 157.039C150.025 156.984 149.9 156.902 149.794 156.798C149.688 156.694 149.603 156.57 149.546 156.432C149.488 156.295 149.458 156.148 149.458 155.999C149.458 155.851 149.487 155.703 149.544 155.566C149.601 155.429 149.685 155.304 149.791 155.2C149.896 155.095 150.021 155.013 150.159 154.958C150.297 154.902 150.444 154.875 150.592 154.877H154.394V155.519H150.594C150.466 155.519 150.344 155.57 150.254 155.661C150.163 155.751 150.113 155.874 150.113 156.002C150.113 156.13 150.163 156.253 150.254 156.344C150.344 156.435 150.466 156.485 150.594 156.485L151.669 156.48C152.027 156.48 152.381 156.551 152.712 156.688C153.043 156.825 153.343 157.026 153.596 157.28C153.849 157.534 154.05 157.835 154.187 158.166C154.324 158.498 154.394 158.853 154.394 159.212C154.394 159.571 154.324 159.926 154.187 160.258C154.05 160.589 153.849 160.89 153.596 161.144C153.343 161.398 153.043 161.599 152.712 161.736C152.381 161.874 152.027 161.944 151.669 161.944L147.863 161.948L147.862 161.291Z" fill="#FB35FF"/>
<path d="M157.933 161.937C157.332 161.938 156.755 161.699 156.329 161.273C155.903 160.847 155.663 160.27 155.661 159.667V155.54C155.663 154.937 155.903 154.36 156.329 153.934C156.755 153.509 157.332 153.27 157.933 153.271H162.018V153.915H157.933C157.504 153.913 157.091 154.081 156.785 154.383C156.479 154.685 156.305 155.096 156.301 155.527V159.667C156.302 160.101 156.475 160.516 156.781 160.822C157.087 161.128 157.501 161.3 157.933 161.3H161.999V161.941L157.933 161.937ZM147.862 160.331V159.692L151.662 159.689C151.726 159.691 151.789 159.68 151.848 159.656C151.908 159.633 151.961 159.598 152.007 159.554C152.053 159.509 152.089 159.456 152.113 159.397C152.138 159.339 152.151 159.276 152.151 159.212C152.151 159.148 152.138 159.085 152.113 159.026C152.089 158.968 152.053 158.914 152.007 158.87C151.961 158.825 151.908 158.79 151.848 158.767C151.789 158.744 151.726 158.733 151.662 158.735L150.595 158.733C150.235 158.737 149.877 158.669 149.544 158.534C149.21 158.398 148.906 158.198 148.65 157.944C148.394 157.69 148.19 157.387 148.052 157.054C147.913 156.721 147.842 156.363 147.842 156.002C147.842 155.641 147.913 155.283 148.052 154.95C148.19 154.616 148.394 154.314 148.65 154.06C148.906 153.806 149.21 153.606 149.544 153.47C149.877 153.335 150.235 153.267 150.595 153.271H154.394V153.918H150.593C150.043 153.918 149.515 154.137 149.126 154.527C148.737 154.918 148.519 155.447 148.519 155.998C148.519 156.55 148.737 157.079 149.126 157.469C149.515 157.86 150.043 158.079 150.593 158.079L151.668 158.091C151.815 158.09 151.96 158.119 152.096 158.175C152.231 158.231 152.354 158.313 152.458 158.417C152.562 158.521 152.644 158.644 152.701 158.78C152.757 158.916 152.786 159.061 152.786 159.208C152.787 159.355 152.758 159.501 152.702 159.637C152.646 159.773 152.564 159.896 152.461 160C152.357 160.105 152.234 160.187 152.099 160.244C151.964 160.3 151.818 160.329 151.672 160.33L147.862 160.331Z" fill="#FB35FF"/>
<path d="M165.434 161.937C164.831 161.939 164.253 161.701 163.825 161.275C163.397 160.849 163.156 160.271 163.153 159.667V155.54C163.154 154.937 163.395 154.36 163.82 153.934C164.246 153.509 164.823 153.27 165.424 153.271H169.381V153.915H165.434C165.004 153.915 164.592 154.086 164.288 154.391C163.983 154.696 163.812 155.109 163.812 155.54V159.667C163.812 160.099 163.984 160.513 164.288 160.818C164.593 161.124 165.006 161.296 165.437 161.296H168.737V157.121H166.362V156.48H169.38V161.94L165.434 161.937ZM157.933 160.328C157.758 160.328 157.59 160.259 157.465 160.135C157.341 160.011 157.271 159.842 157.27 159.667V158.085H161.08V158.728H157.905L157.909 159.06C157.909 159.143 157.925 159.226 157.957 159.303C157.988 159.38 158.035 159.45 158.094 159.508C158.153 159.567 158.223 159.613 158.3 159.645C158.377 159.676 158.46 159.691 158.543 159.69H162V160.326L157.933 160.328ZM157.271 157.121V155.541C157.27 155.365 157.34 155.196 157.464 155.071C157.588 154.946 157.756 154.875 157.932 154.875H162.017V155.522L158.544 155.522C158.461 155.52 158.379 155.535 158.301 155.565C158.224 155.596 158.154 155.642 158.095 155.7C158.035 155.759 157.988 155.828 157.956 155.905C157.924 155.982 157.908 156.065 157.908 156.148L157.904 156.48H161.08V157.121H157.271Z" fill="#FB35FF"/>
<path d="M171.556 161.938L174.032 154.633C174.039 154.614 174.051 154.599 174.067 154.588C174.083 154.577 174.102 154.571 174.122 154.571C174.181 154.586 174.202 154.608 174.212 154.637L176.139 160.346H173.885L173.887 159.556H175.032L174.121 156.842L172.397 161.939L171.556 161.938ZM165.434 160.335C165.257 160.334 165.088 160.263 164.964 160.138C164.84 160.012 164.77 159.842 164.77 159.666V155.54C164.77 155.364 164.84 155.194 164.965 155.07C165.089 154.945 165.258 154.875 165.434 154.874H169.38V155.514H166.04C165.957 155.514 165.874 155.53 165.796 155.562C165.719 155.593 165.649 155.641 165.59 155.7C165.531 155.759 165.484 155.83 165.453 155.908C165.422 155.986 165.406 156.069 165.407 156.153L165.414 159.057C165.414 159.225 165.48 159.386 165.598 159.504C165.716 159.623 165.877 159.69 166.044 159.69H167.136L167.13 158.728H166.365V158.083H167.776V160.335H165.434Z" fill="#FB35FF"/>
<path d="M169.858 161.939L172.467 154.265C172.593 153.929 172.819 153.639 173.113 153.434C173.408 153.229 173.757 153.119 174.116 153.118C174.474 153.117 174.825 153.226 175.12 153.429C175.416 153.633 175.642 153.922 175.77 154.258L178.358 161.938H173.89V161.295H177.47L175.095 154.278C175.017 154.082 174.882 153.915 174.708 153.796C174.534 153.678 174.329 153.614 174.119 153.613C173.912 153.612 173.709 153.673 173.537 153.788C173.365 153.904 173.23 154.067 173.151 154.259L170.542 161.937L169.858 161.939Z" fill="#FB35FF"/>
</g>
<defs>
<clipPath id="clip0">
<rect width="327" height="328" fill="white"/>
</clipPath>
</defs>
</svg>
